HIERARCHY
ROOT Joint1
{
	OFFSET 0.000000 0.000000 0.000000
	CHANNELS 6 Xposition Yposition Zposition Xrotation Yrotation Zrotation
	JOINT Joint2
	{
		OFFSET -0.000000 0.000000 1.456275
		CHANNELS 6 Xposition Yposition Zposition Xrotation Yrotation Zrotation
		JOINT Joint3
		{
			OFFSET -0.000000 0.000002 1.471446
			CHANNELS 6 Xposition Yposition Zposition Xrotation Yrotation Zrotation
			JOINT Joint4
			{
				OFFSET 0.625745 0.000000 0.917755
				CHANNELS 6 Xposition Yposition Zposition Xrotation Yrotation Zrotation
				JOINT Joint5
				{
					OFFSET -0.629534 0.000001 0.940221
					CHANNELS 6 Xposition Yposition Zposition Xrotation Yrotation Zrotation
					JOINT Joint6
					{
						OFFSET -0.000001 0.113772 1.960660
						CHANNELS 6 Xposition Yposition Zposition Xrotation Yrotation Zrotation
						JOINT Joint7
						{
							OFFSET -0.669733 -0.113771 0.388340
							CHANNELS 6 Xposition Yposition Zposition Xrotation Yrotation Zrotation
							End Site
							{
								OFFSET 0.005509 0.005509 0.438980
							}
						}
					}
				}
			}
		}
	}
}
MOTION
Frames: 12
Frame Time: 0.041667
0.000000 0.000000 0.000000 -0.000000 1.019410 0.161363 -0.000000 -0.000000 1.456275 0.000000 -22.423521 -0.000000 -0.000000 0.000002 1.471446 -0.000008 -1.133466 -115.897163 0.625745 0.000000 0.917755 -0.000095 87.961826 0.000051 -0.629533 0.000001 0.940221 0.000001 1.709736 -30.304924 -0.000000 0.113772 1.960660 -88.303875 102.411371 0.000008 -0.669733 -0.113771 0.388340 -0.441880 1.567511 -29.969521 
0.000000 0.000000 0.000000 -0.000000 1.019410 0.161264 -0.000000 0.000000 1.456275 -0.000000 -22.436482 0.000000 -0.000000 0.000002 1.471446 -0.000008 -1.133464 -115.830624 0.625745 0.000001 0.917755 -0.000078 87.988867 -0.000039 -0.629534 0.000001 0.940221 -0.000000 1.709735 -30.287518 -0.000000 0.113772 1.960661 -88.303868 102.404227 0.000016 -0.669734 -0.113771 0.388340 -0.440255 1.567954 -29.874821 
0.000000 0.000000 0.000000 -0.000000 1.019410 0.161089 -0.000000 0.000000 1.456275 -0.000000 -22.459475 0.000000 -0.000000 0.000002 1.471446 -0.000008 -1.133465 -115.712475 0.625745 0.000000 0.917756 -0.000062 88.036849 -0.000034 -0.629534 0.000001 0.940221 -0.000001 1.709735 -30.256635 -0.000001 0.113772 1.960661 -88.303855 102.391557 0.000013 -0.669733 -0.113771 0.388340 -0.437376 1.568729 -29.706750 
0.000000 0.000000 0.000000 -0.000000 1.019410 0.160829 -0.000000 0.000000 1.456275 0.000000 -22.493659 -0.000000 -0.000000 0.000002 1.471446 -0.000008 -1.133465 -115.536857 0.625745 0.000000 0.917755 -0.000038 88.108170 -0.000003 -0.629533 0.000001 0.940220 -0.000001 1.709735 -30.210729 -0.000000 0.113772 1.960660 -88.303875 102.372713 0.000010 -0.669733 -0.113771 0.388340 -0.433098 1.569911 -29.456943 
0.000000 0.000000 0.000000 -0.000000 1.019410 0.160475 -0.000000 0.000000 1.456275 -0.000000 -22.540171 -0.000000 -0.000000 0.000002 1.471446 -0.000008 -1.133464 -115.297937 0.625745 0.000000 0.917755 -0.000047 88.205213 0.000045 -0.629534 0.000001 0.940221 0.000002 1.709735 -30.148264 -0.000001 0.113772 1.960660 -88.303868 102.347079 0.000015 -0.669733 -0.113771 0.388340 -0.427286 1.571548 -29.117028 
0.000000 0.000000 0.000000 -0.000000 1.019410 0.160018 -0.000000 0.000000 1.456275 -0.000000 -22.600155 -0.000000 -0.000000 0.000002 1.471445 -0.000008 -1.133466 -114.989773 0.625745 0.000000 0.917755 0.000001 88.330370 -0.000003 -0.629533 0.000001 0.940221 -0.000002 1.709736 -30.067702 -0.000001 0.113772 1.960660 -88.303875 102.314014 0.000012 -0.669733 -0.113771 0.388340 -0.419802 1.573704 -28.678622 
0.000000 0.000000 0.000000 -0.000000 1.019410 0.159450 -0.000000 0.000000 1.456275 -0.000000 -22.674765 -0.000000 -0.000000 0.000002 1.471445 -0.000008 -1.133465 -114.606503 0.625745 0.000001 0.917755 -0.000088 88.486043 -0.000012 -0.629534 0.000001 0.940221 0.000000 1.709736 -29.967503 -0.000001 0.113772 1.960660 -88.303875 102.272889 0.000013 -0.669733 -0.113772 0.388340 -0.410523 1.576470 -28.133355 
0.000000 0.000000 0.000000 -0.000000 1.019410 0.158762 -0.000000 0.000000 1.456275 -0.000000 -22.765140 -0.000000 -0.000000 0.000002 1.471445 -0.000008 -1.133462 -114.142221 0.625745 0.000000 0.917755 -0.000156 88.674604 -0.000041 -0.629534 0.000001 0.940221 0.000001 1.709736 -29.846130 -0.000001 0.113772 1.960660 -88.303875 102.223077 0.000013 -0.669733 -0.113771 0.388340 -0.399315 1.579936 -27.472863 
0.000000 0.000000 0.000000 -0.000000 1.019410 0.157945 -0.000000 0.000000 1.456275 -0.000000 -22.872430 -0.000000 -0.000000 0.000002 1.471446 -0.000008 -1.133466 -113.591066 0.625745 0.000001 0.917755 -0.000176 88.898464 0.000062 -0.629533 0.000001 0.940221 0.000001 1.709737 -29.702030 -0.000001 0.113772 1.960660 -88.303875 102.163948 0.000005 -0.669733 -0.113771 0.388340 -0.386063 1.584219 -26.688768 
0.000000 0.000000 0.000000 -0.000000 1.019410 0.156991 -0.000000 0.000000 1.456275 -0.000000 -22.997776 -0.000000 -0.000000 0.000002 1.471446 -0.000007 -1.133468 -112.947130 0.625745 0.000001 0.917756 -0.000086 89.159992 -0.000006 -0.629534 0.000001 0.940221 0.000002 1.709736 -29.533690 -0.000001 0.113772 1.960660 -88.303862 102.094861 0.000006 -0.669733 -0.113771 0.388340 -0.370657 1.589454 -25.772682 
0.000000 0.000000 0.000000 -0.000000 1.019410 0.155891 -0.000000 0.000000 1.456275 -0.000000 -23.142325 -0.000000 -0.000000 0.000002 1.471445 -0.000007 -1.133465 -112.204551 0.625745 0.000000 0.917755 -0.000134 89.461586 0.000217 -0.629534 0.000001 0.940221 -0.000001 1.709736 -29.339559 -0.000001 0.113772 1.960661 -88.303882 102.015186 0.000015 -0.669733 -0.113771 0.388340 -0.352997 1.595794 -24.716269 
0.000000 0.000000 0.000000 -0.000000 1.019410 0.154635 -0.000000 0.000000 1.456275 -0.000000 -23.307228 0.000000 -0.000000 0.000002 1.471445 -0.000007 -1.133467 -111.357430 0.625745 0.000000 0.917755 -0.000370 89.805649 0.000602 -0.629533 0.000001 0.940221 -0.000000 1.709737 -29.118100 -0.000001 0.113772 1.960660 -88.303875 101.924297 0.000015 -0.669734 -0.113771 0.388340 -0.332999 1.603425 -23.511113 
